<svg width="320" height="199" viewBox="0 0 320 199" fill="none" xmlns="http://www.w3.org/2000/svg">
<g filter="url(#filter0_dd_1_35)">
<rect x="27" y="7" width="266" height="145" rx="24" fill="white"/>
</g>
<path d="M98.386 54V40.59H107.224V42.48H100.51V46.332H106.864V48.222H100.51V52.11H107.224V54H98.386ZM108.027 54L111.429 49.122L108.027 44.262H110.421L113.211 48.33H112.059L114.849 44.262H117.243L113.823 49.122L117.225 54H114.831L112.077 49.914H113.193L110.421 54H108.027ZM122.852 54.216C121.88 54.216 121.016 53.994 120.26 53.55C119.516 53.094 118.934 52.482 118.514 51.714C118.094 50.934 117.884 50.064 117.884 49.104C117.884 48.12 118.094 47.25 118.514 46.494C118.946 45.738 119.522 45.144 120.242 44.712C120.962 44.268 121.778 44.046 122.69 44.046C123.422 44.046 124.076 44.172 124.652 44.424C125.228 44.676 125.714 45.024 126.11 45.468C126.506 45.9 126.806 46.398 127.01 46.962C127.226 47.526 127.334 48.126 127.334 48.762C127.334 48.918 127.328 49.08 127.316 49.248C127.304 49.416 127.28 49.572 127.244 49.716H119.486V48.096H126.092L125.12 48.834C125.24 48.246 125.198 47.724 124.994 47.268C124.802 46.8 124.502 46.434 124.094 46.17C123.698 45.894 123.23 45.756 122.69 45.756C122.15 45.756 121.67 45.894 121.25 46.17C120.83 46.434 120.506 46.818 120.278 47.322C120.05 47.814 119.96 48.414 120.008 49.122C119.948 49.782 120.038 50.358 120.278 50.85C120.53 51.342 120.878 51.726 121.322 52.002C121.778 52.278 122.294 52.416 122.87 52.416C123.458 52.416 123.956 52.284 124.364 52.02C124.784 51.756 125.114 51.414 125.354 50.994L127.01 51.804C126.818 52.26 126.518 52.674 126.11 53.046C125.714 53.406 125.234 53.694 124.67 53.91C124.118 54.114 123.512 54.216 122.852 54.216ZM129.319 54V44.262H131.263V46.224L131.083 45.936C131.299 45.3 131.647 44.844 132.127 44.568C132.607 44.28 133.183 44.136 133.855 44.136H134.449V45.99H133.603C132.931 45.99 132.385 46.2 131.965 46.62C131.557 47.028 131.353 47.616 131.353 48.384V54H129.319ZM140.466 54.216C139.494 54.216 138.63 53.994 137.874 53.55C137.13 53.094 136.536 52.482 136.092 51.714C135.66 50.946 135.444 50.076 135.444 49.104C135.444 48.144 135.66 47.28 136.092 46.512C136.524 45.744 137.118 45.144 137.874 44.712C138.63 44.268 139.494 44.046 140.466 44.046C141.126 44.046 141.744 44.166 142.32 44.406C142.896 44.634 143.394 44.952 143.814 45.36C144.246 45.768 144.564 46.242 144.768 46.782L142.986 47.61C142.782 47.106 142.452 46.704 141.996 46.404C141.552 46.092 141.042 45.936 140.466 45.936C139.914 45.936 139.416 46.074 138.972 46.35C138.54 46.614 138.198 46.992 137.946 47.484C137.694 47.964 137.568 48.51 137.568 49.122C137.568 49.734 137.694 50.286 137.946 50.778C138.198 51.258 138.54 51.636 138.972 51.912C139.416 52.188 139.914 52.326 140.466 52.326C141.054 52.326 141.564 52.176 141.996 51.876C142.44 51.564 142.77 51.15 142.986 50.634L144.768 51.48C144.576 51.996 144.264 52.464 143.832 52.884C143.412 53.292 142.914 53.616 142.338 53.856C141.762 54.096 141.138 54.216 140.466 54.216ZM146.756 54V44.262H148.79V54H146.756ZM146.756 42.93V40.59H148.79V42.93H146.756ZM154.768 54.216C153.772 54.216 152.896 53.97 152.14 53.478C151.396 52.986 150.874 52.326 150.574 51.498L152.14 50.76C152.404 51.312 152.764 51.75 153.22 52.074C153.688 52.398 154.204 52.56 154.768 52.56C155.248 52.56 155.638 52.452 155.938 52.236C156.238 52.02 156.388 51.726 156.388 51.354C156.388 51.114 156.322 50.922 156.19 50.778C156.058 50.622 155.89 50.496 155.686 50.4C155.494 50.304 155.296 50.232 155.092 50.184L153.562 49.752C152.722 49.512 152.092 49.152 151.672 48.672C151.264 48.18 151.06 47.61 151.06 46.962C151.06 46.374 151.21 45.864 151.51 45.432C151.81 44.988 152.224 44.646 152.752 44.406C153.28 44.166 153.874 44.046 154.534 44.046C155.422 44.046 156.214 44.268 156.91 44.712C157.606 45.144 158.098 45.75 158.386 46.53L156.82 47.268C156.628 46.8 156.322 46.428 155.902 46.152C155.494 45.876 155.032 45.738 154.516 45.738C154.072 45.738 153.718 45.846 153.454 46.062C153.19 46.266 153.058 46.536 153.058 46.872C153.058 47.1 153.118 47.292 153.238 47.448C153.358 47.592 153.514 47.712 153.706 47.808C153.898 47.892 154.096 47.964 154.3 48.024L155.884 48.492C156.688 48.72 157.306 49.08 157.738 49.572C158.17 50.052 158.386 50.628 158.386 51.3C158.386 51.876 158.23 52.386 157.918 52.83C157.618 53.262 157.198 53.604 156.658 53.856C156.118 54.096 155.488 54.216 154.768 54.216ZM160.379 54V44.262H162.413V54H160.379ZM160.379 42.93V40.59H162.413V42.93H160.379ZM164.792 54V44.262H166.736V46.17L166.502 45.918C166.742 45.306 167.126 44.844 167.654 44.532C168.182 44.208 168.794 44.046 169.49 44.046C170.21 44.046 170.846 44.202 171.398 44.514C171.95 44.826 172.382 45.258 172.694 45.81C173.006 46.362 173.162 46.998 173.162 47.718V54H171.146V48.258C171.146 47.766 171.056 47.352 170.876 47.016C170.696 46.668 170.438 46.404 170.102 46.224C169.778 46.032 169.406 45.936 168.986 45.936C168.566 45.936 168.188 46.032 167.852 46.224C167.528 46.404 167.276 46.668 167.096 47.016C166.916 47.364 166.826 47.778 166.826 48.258V54H164.792ZM180.036 57.96C179.328 57.96 178.674 57.846 178.074 57.618C177.474 57.39 176.958 57.072 176.526 56.664C176.094 56.268 175.77 55.8 175.554 55.26L177.426 54.486C177.594 54.942 177.9 55.32 178.344 55.62C178.8 55.92 179.358 56.07 180.018 56.07C180.534 56.07 180.996 55.968 181.404 55.764C181.812 55.572 182.136 55.284 182.376 54.9C182.616 54.528 182.736 54.078 182.736 53.55V51.354L183.096 51.768C182.76 52.392 182.292 52.866 181.692 53.19C181.104 53.514 180.438 53.676 179.694 53.676C178.794 53.676 177.984 53.466 177.264 53.046C176.544 52.626 175.974 52.05 175.554 51.318C175.146 50.586 174.942 49.764 174.942 48.852C174.942 47.928 175.146 47.106 175.554 46.386C175.974 45.666 176.538 45.096 177.246 44.676C177.954 44.256 178.764 44.046 179.676 44.046C180.42 44.046 181.08 44.208 181.656 44.532C182.244 44.844 182.724 45.3 183.096 45.9L182.826 46.404V44.262H184.752V53.55C184.752 54.39 184.548 55.14 184.14 55.8C183.744 56.472 183.192 57 182.484 57.384C181.776 57.768 180.96 57.96 180.036 57.96ZM179.928 51.786C180.468 51.786 180.948 51.66 181.368 51.408C181.788 51.144 182.118 50.796 182.358 50.364C182.61 49.92 182.736 49.422 182.736 48.87C182.736 48.318 182.61 47.82 182.358 47.376C182.106 46.932 181.77 46.584 181.35 46.332C180.93 46.068 180.456 45.936 179.928 45.936C179.376 45.936 178.884 46.068 178.452 46.332C178.02 46.584 177.678 46.932 177.426 47.376C177.186 47.808 177.066 48.306 177.066 48.87C177.066 49.41 177.186 49.902 177.426 50.346C177.678 50.79 178.02 51.144 178.452 51.408C178.884 51.66 179.376 51.786 179.928 51.786Z" fill="#020305"/>
<rect x="47" y="27" width="40" height="40" rx="12" fill="#A9C2CB"/>
<g filter="url(#filter1_d_1_35)">
<path d="M67.765 39.7023L67 40.5242L66.235 39.7023C64.1223 37.4326 60.6971 37.4326 58.5845 39.7023C56.4718 41.972 56.4718 45.6519 58.5845 47.9217L65.4699 55.3191C66.3149 56.227 67.685 56.227 68.5301 55.3191L75.4155 47.9217C77.5282 45.6519 77.5282 41.972 75.4155 39.7023C73.3029 37.4326 69.8777 37.4326 67.765 39.7023Z" fill="white"/>
</g>
<g clip-path="url(#clip0_1_35)">
<path d="M64.17 128.34C64.17 128.34 67.26 131.4 77.55 126.64C87.84 121.88 82.7 130.28 87.55 129.31C92.4 128.34 92.69 123.52 97.07 125.16C101.45 126.8 100.93 130.72 104.53 125.79C108.13 120.86 108.39 88.17 108.39 88.17L110.97 127.17C110.97 127.17 120.97 131.93 128.47 119.68C135.97 107.43 141.59 117.47 142.11 122.57C142.63 127.67 150.11 131.57 154.2 125.98C154.2 125.98 157.04 123.25 160.38 128.7C163.72 134.15 167.59 124.1 167.59 124.1C167.59 124.1 172.48 122.1 174.28 128.87L180.97 88.19L184.83 128.36C187.48 128.968 190.257 128.68 192.726 127.539C195.194 126.399 197.215 124.472 198.47 122.06C203.36 113.38 210.57 110.49 216.23 123.59C216.23 123.59 221.36 134.11 233.02 125.09C233.02 125.09 240.26 119.81 244.69 126.45H254.95" stroke="url(#paint0_linear_1_35)" stroke-width="2.34" stroke-linecap="round" stroke-linejoin="round"/>
</g>
<defs>
<filter id="filter0_dd_1_35" x="0" y="0" width="320" height="199" filterUnits="userSpaceOnUse" color-interpolation-filters="sRGB">
<feFlood flood-opacity="0" result="BackgroundImageFix"/>
<feColorMatrix in="SourceAlpha" type="matrix" values="0 0 0 0 0 0 0 0 0 0 0 0 0 0 0 0 0 0 127 0" result="hardAlpha"/>
<feOffset dy="4"/>
<feGaussianBlur stdDeviation="2"/>
<feComposite in2="hardAlpha" operator="out"/>
<feColorMatrix type="matrix" values="0 0 0 0 1 0 0 0 0 1 0 0 0 0 1 0 0 0 0.25 0"/>
<feBlend mode="normal" in2="BackgroundImageFix" result="effect1_dropShadow_1_35"/>
<feColorMatrix in="SourceAlpha" type="matrix" values="0 0 0 0 0 0 0 0 0 0 0 0 0 0 0 0 0 0 127 0" result="hardAlpha"/>
<feMorphology radius="12" operator="erode" in="SourceAlpha" result="effect2_dropShadow_1_35"/>
<feOffset dy="20"/>
<feGaussianBlur stdDeviation="19.5"/>
<feComposite in2="hardAlpha" operator="out"/>
<feColorMatrix type="matrix" values="0 0 0 0 0.388235 0 0 0 0 0.458824 0 0 0 0 0.486275 0 0 0 0.4 0"/>
<feBlend mode="normal" in2="effect1_dropShadow_1_35" result="effect2_dropShadow_1_35"/>
<feBlend mode="normal" in="SourceGraphic" in2="effect2_dropShadow_1_35" result="shape"/>
</filter>
<filter id="filter1_d_1_35" x="50" y="35" width="34" height="32" filterUnits="userSpaceOnUse" color-interpolation-filters="sRGB">
<feFlood flood-opacity="0" result="BackgroundImageFix"/>
<feColorMatrix in="SourceAlpha" type="matrix" values="0 0 0 0 0 0 0 0 0 0 0 0 0 0 0 0 0 0 127 0" result="hardAlpha"/>
<feOffset dy="4"/>
<feGaussianBlur stdDeviation="3.5"/>
<feComposite in2="hardAlpha" operator="out"/>
<feColorMatrix type="matrix" values="0 0 0 0 0.388451 0 0 0 0 0.459239 0 0 0 0 0.484722 0 0 0 0.8 0"/>
<feBlend mode="normal" in2="BackgroundImageFix" result="effect1_dropShadow_1_35"/>
<feBlend mode="normal" in="SourceGraphic" in2="effect1_dropShadow_1_35" result="shape"/>
</filter>
<linearGradient id="paint0_linear_1_35" x1="63" y1="109.23" x2="256.16" y2="109.23" gradientUnits="userSpaceOnUse">
<stop stop-color="#171E27"/>
<stop offset="1" stop-color="#A9C2CB"/>
</linearGradient>
<clipPath id="clip0_1_35">
<rect width="193.17" height="44.47" fill="white" transform="translate(63 87)"/>
</clipPath>
</defs>
</svg>
