<svg width="391" height="253" viewBox="0 0 391 253" fill="none" xmlns="http://www.w3.org/2000/svg">
<g filter="url(#filter0_d_1_103)">
<rect x="27" y="7" width="337" height="199" rx="24" fill="white"/>
</g>
<rect x="47" y="27" width="40" height="40" rx="12" fill="#A9C2CB"/>
<path d="M103.084 55.216C102.244 55.216 101.464 55.06 100.744 54.748C100.024 54.424 99.412 53.986 98.908 53.434C98.404 52.882 98.032 52.246 97.792 51.526L99.592 50.77C99.916 51.598 100.39 52.234 101.014 52.678C101.638 53.122 102.358 53.344 103.174 53.344C103.654 53.344 104.074 53.272 104.434 53.128C104.794 52.972 105.07 52.756 105.262 52.48C105.466 52.204 105.568 51.886 105.568 51.526C105.568 51.034 105.43 50.644 105.154 50.356C104.878 50.068 104.47 49.84 103.93 49.672L101.41 48.88C100.402 48.568 99.634 48.094 99.106 47.458C98.578 46.81 98.314 46.054 98.314 45.19C98.314 44.434 98.5 43.774 98.872 43.21C99.244 42.634 99.754 42.184 100.402 41.86C101.062 41.536 101.812 41.374 102.652 41.374C103.456 41.374 104.188 41.518 104.848 41.806C105.508 42.082 106.072 42.466 106.54 42.958C107.02 43.45 107.368 44.02 107.584 44.668L105.82 45.442C105.556 44.734 105.142 44.188 104.578 43.804C104.026 43.42 103.384 43.228 102.652 43.228C102.208 43.228 101.818 43.306 101.482 43.462C101.146 43.606 100.882 43.822 100.69 44.11C100.51 44.386 100.42 44.71 100.42 45.082C100.42 45.514 100.558 45.898 100.834 46.234C101.11 46.57 101.53 46.822 102.094 46.99L104.434 47.728C105.502 48.052 106.306 48.52 106.846 49.132C107.386 49.732 107.656 50.482 107.656 51.382C107.656 52.126 107.458 52.786 107.062 53.362C106.678 53.938 106.144 54.394 105.46 54.73C104.776 55.054 103.984 55.216 103.084 55.216ZM109.842 58.6V45.262H111.786V47.278L111.552 46.81C111.912 46.258 112.392 45.826 112.992 45.514C113.592 45.202 114.276 45.046 115.044 45.046C115.968 45.046 116.796 45.268 117.528 45.712C118.272 46.156 118.854 46.762 119.274 47.53C119.706 48.298 119.922 49.162 119.922 50.122C119.922 51.082 119.706 51.946 119.274 52.714C118.854 53.482 118.278 54.094 117.546 54.55C116.814 54.994 115.98 55.216 115.044 55.216C114.288 55.216 113.598 55.06 112.974 54.748C112.362 54.436 111.888 53.986 111.552 53.398L111.876 53.02V58.6H109.842ZM114.846 53.326C115.422 53.326 115.932 53.188 116.376 52.912C116.82 52.636 117.168 52.258 117.42 51.778C117.684 51.286 117.816 50.734 117.816 50.122C117.816 49.51 117.684 48.964 117.42 48.484C117.168 48.004 116.82 47.626 116.376 47.35C115.932 47.074 115.422 46.936 114.846 46.936C114.282 46.936 113.772 47.074 113.316 47.35C112.872 47.626 112.518 48.004 112.254 48.484C112.002 48.964 111.876 49.51 111.876 50.122C111.876 50.734 112.002 51.286 112.254 51.778C112.518 52.258 112.872 52.636 113.316 52.912C113.772 53.188 114.282 53.326 114.846 53.326ZM124.817 55.216C124.157 55.216 123.575 55.102 123.071 54.874C122.579 54.634 122.195 54.31 121.919 53.902C121.643 53.482 121.505 52.99 121.505 52.426C121.505 51.898 121.619 51.424 121.847 51.004C122.087 50.584 122.453 50.23 122.945 49.942C123.437 49.654 124.055 49.45 124.799 49.33L128.183 48.772V50.374L125.195 50.896C124.655 50.992 124.259 51.166 124.007 51.418C123.755 51.658 123.629 51.97 123.629 52.354C123.629 52.726 123.767 53.032 124.043 53.272C124.331 53.5 124.697 53.614 125.141 53.614C125.693 53.614 126.173 53.494 126.581 53.254C127.001 53.014 127.325 52.696 127.553 52.3C127.781 51.892 127.895 51.442 127.895 50.95V48.448C127.895 47.968 127.715 47.578 127.355 47.278C127.007 46.966 126.539 46.81 125.951 46.81C125.411 46.81 124.937 46.954 124.529 47.242C124.133 47.518 123.839 47.878 123.647 48.322L121.955 47.476C122.135 46.996 122.429 46.576 122.837 46.216C123.245 45.844 123.719 45.556 124.259 45.352C124.811 45.148 125.393 45.046 126.005 45.046C126.773 45.046 127.451 45.19 128.039 45.478C128.639 45.766 129.101 46.168 129.425 46.684C129.761 47.188 129.929 47.776 129.929 48.448V55H127.985V53.236L128.399 53.29C128.171 53.686 127.877 54.028 127.517 54.316C127.169 54.604 126.767 54.826 126.311 54.982C125.867 55.138 125.369 55.216 124.817 55.216ZM136.933 55.216C135.961 55.216 135.097 54.994 134.341 54.55C133.597 54.094 133.003 53.482 132.559 52.714C132.127 51.946 131.911 51.076 131.911 50.104C131.911 49.144 132.127 48.28 132.559 47.512C132.991 46.744 133.585 46.144 134.341 45.712C135.097 45.268 135.961 45.046 136.933 45.046C137.593 45.046 138.211 45.166 138.787 45.406C139.363 45.634 139.861 45.952 140.281 46.36C140.713 46.768 141.031 47.242 141.235 47.782L139.453 48.61C139.249 48.106 138.919 47.704 138.463 47.404C138.019 47.092 137.509 46.936 136.933 46.936C136.381 46.936 135.883 47.074 135.439 47.35C135.007 47.614 134.665 47.992 134.413 48.484C134.161 48.964 134.035 49.51 134.035 50.122C134.035 50.734 134.161 51.286 134.413 51.778C134.665 52.258 135.007 52.636 135.439 52.912C135.883 53.188 136.381 53.326 136.933 53.326C137.521 53.326 138.031 53.176 138.463 52.876C138.907 52.564 139.237 52.15 139.453 51.634L141.235 52.48C141.043 52.996 140.731 53.464 140.299 53.884C139.879 54.292 139.381 54.616 138.805 54.856C138.229 55.096 137.605 55.216 136.933 55.216ZM147.795 55.216C146.823 55.216 145.959 54.994 145.203 54.55C144.459 54.094 143.877 53.482 143.457 52.714C143.037 51.934 142.827 51.064 142.827 50.104C142.827 49.12 143.037 48.25 143.457 47.494C143.889 46.738 144.465 46.144 145.185 45.712C145.905 45.268 146.721 45.046 147.633 45.046C148.365 45.046 149.019 45.172 149.595 45.424C150.171 45.676 150.657 46.024 151.053 46.468C151.449 46.9 151.749 47.398 151.953 47.962C152.169 48.526 152.277 49.126 152.277 49.762C152.277 49.918 152.271 50.08 152.259 50.248C152.247 50.416 152.223 50.572 152.187 50.716H144.429V49.096H151.035L150.063 49.834C150.183 49.246 150.141 48.724 149.937 48.268C149.745 47.8 149.445 47.434 149.037 47.17C148.641 46.894 148.173 46.756 147.633 46.756C147.093 46.756 146.613 46.894 146.193 47.17C145.773 47.434 145.449 47.818 145.221 48.322C144.993 48.814 144.903 49.414 144.951 50.122C144.891 50.782 144.981 51.358 145.221 51.85C145.473 52.342 145.821 52.726 146.265 53.002C146.721 53.278 147.237 53.416 147.813 53.416C148.401 53.416 148.899 53.284 149.307 53.02C149.727 52.756 150.057 52.414 150.297 51.994L151.953 52.804C151.761 53.26 151.461 53.674 151.053 54.046C150.657 54.406 150.177 54.694 149.613 54.91C149.061 55.114 148.455 55.216 147.795 55.216ZM156.62 55L153.272 45.262H155.432L157.988 53.02H157.232L159.842 45.262H161.696L164.288 53.02H163.532L166.106 45.262H168.266L164.9 55H163.064L160.436 47.062H161.102L158.474 55H156.62ZM172.225 55.216C171.565 55.216 170.983 55.102 170.479 54.874C169.987 54.634 169.603 54.31 169.327 53.902C169.051 53.482 168.913 52.99 168.913 52.426C168.913 51.898 169.027 51.424 169.255 51.004C169.495 50.584 169.861 50.23 170.353 49.942C170.845 49.654 171.463 49.45 172.207 49.33L175.591 48.772V50.374L172.603 50.896C172.063 50.992 171.667 51.166 171.415 51.418C171.163 51.658 171.037 51.97 171.037 52.354C171.037 52.726 171.175 53.032 171.451 53.272C171.739 53.5 172.105 53.614 172.549 53.614C173.101 53.614 173.581 53.494 173.989 53.254C174.409 53.014 174.733 52.696 174.961 52.3C175.189 51.892 175.303 51.442 175.303 50.95V48.448C175.303 47.968 175.123 47.578 174.763 47.278C174.415 46.966 173.947 46.81 173.359 46.81C172.819 46.81 172.345 46.954 171.937 47.242C171.541 47.518 171.247 47.878 171.055 48.322L169.363 47.476C169.543 46.996 169.837 46.576 170.245 46.216C170.653 45.844 171.127 45.556 171.667 45.352C172.219 45.148 172.801 45.046 173.413 45.046C174.181 45.046 174.859 45.19 175.447 45.478C176.047 45.766 176.509 46.168 176.833 46.684C177.169 47.188 177.337 47.776 177.337 48.448V55H175.393V53.236L175.807 53.29C175.579 53.686 175.285 54.028 174.925 54.316C174.577 54.604 174.175 54.826 173.719 54.982C173.275 55.138 172.777 55.216 172.225 55.216ZM179.715 55V41.374H181.749V55H179.715ZM184.127 55V41.374H186.161V50.5L185.369 50.302L190.247 45.262H192.785L189.113 49.168L192.947 55H190.607L187.187 49.834L188.393 49.672L185.513 52.732L186.161 51.382V55H184.127ZM197.94 55.216C196.944 55.216 196.068 54.97 195.312 54.478C194.568 53.986 194.046 53.326 193.746 52.498L195.312 51.76C195.576 52.312 195.936 52.75 196.392 53.074C196.86 53.398 197.376 53.56 197.94 53.56C198.42 53.56 198.81 53.452 199.11 53.236C199.41 53.02 199.56 52.726 199.56 52.354C199.56 52.114 199.494 51.922 199.362 51.778C199.23 51.622 199.062 51.496 198.858 51.4C198.666 51.304 198.468 51.232 198.264 51.184L196.734 50.752C195.894 50.512 195.264 50.152 194.844 49.672C194.436 49.18 194.232 48.61 194.232 47.962C194.232 47.374 194.382 46.864 194.682 46.432C194.982 45.988 195.396 45.646 195.924 45.406C196.452 45.166 197.046 45.046 197.706 45.046C198.594 45.046 199.386 45.268 200.082 45.712C200.778 46.144 201.27 46.75 201.558 47.53L199.992 48.268C199.8 47.8 199.494 47.428 199.074 47.152C198.666 46.876 198.204 46.738 197.688 46.738C197.244 46.738 196.89 46.846 196.626 47.062C196.362 47.266 196.23 47.536 196.23 47.872C196.23 48.1 196.29 48.292 196.41 48.448C196.53 48.592 196.686 48.712 196.878 48.808C197.07 48.892 197.268 48.964 197.472 49.024L199.056 49.492C199.86 49.72 200.478 50.08 200.91 50.572C201.342 51.052 201.558 51.628 201.558 52.3C201.558 52.876 201.402 53.386 201.09 53.83C200.79 54.262 200.37 54.604 199.83 54.856C199.29 55.096 198.66 55.216 197.94 55.216Z" fill="#020305"/>
<g clip-path="url(#clip0_1_103)">
<path d="M237.33 87.55H47.5V184.91H237.33V87.55Z" stroke="#A9C2CB" stroke-miterlimit="10"/>
<path d="M66.8199 87.55V184.91" stroke="#A9C2CB" stroke-miterlimit="10"/>
<path d="M88.86 87.55V184.91" stroke="#A9C2CB" stroke-miterlimit="10"/>
<path d="M110.91 87.55V184.91" stroke="#A9C2CB" stroke-miterlimit="10"/>
<path d="M132.95 87.55V184.91" stroke="#A9C2CB" stroke-miterlimit="10"/>
<path d="M154.99 87.55V184.91" stroke="#A9C2CB" stroke-miterlimit="10"/>
<path d="M177.04 87.55V184.91" stroke="#A9C2CB" stroke-miterlimit="10"/>
<path d="M199.08 87.55V184.91" stroke="#A9C2CB" stroke-miterlimit="10"/>
<path d="M221.12 87.55V184.91" stroke="#A9C2CB" stroke-miterlimit="10"/>
<path d="M237.33 87.55H47.5" stroke="#A9C2CB" stroke-width="1.11" stroke-miterlimit="10"/>
<path d="M237.33 101.46H47.5" stroke="#A9C2CB" stroke-width="1.11" stroke-miterlimit="10"/>
<path d="M237.33 115.37H47.5" stroke="#A9C2CB" stroke-width="1.11" stroke-miterlimit="10"/>
<path d="M237.33 129.28H47.5" stroke="#A9C2CB" stroke-width="1.11" stroke-miterlimit="10"/>
<path d="M237.33 143.19H47.5" stroke="#A9C2CB" stroke-width="1.11" stroke-miterlimit="10"/>
<path d="M237.33 157.09H47.5" stroke="#A9C2CB" stroke-width="1.11" stroke-miterlimit="10"/>
<path d="M237.33 171H47.5" stroke="#A9C2CB" stroke-width="1.11" stroke-miterlimit="10"/>
<path d="M237.33 184.91H47.5" stroke="#A9C2CB" stroke-width="1.11" stroke-miterlimit="10"/>
<path d="M221.12 114.53H176.96L133.16 129.08L110.56 170.61L88.8799 143.1L66.8199 170.61" stroke="url(#paint0_linear_1_103)" stroke-miterlimit="10"/>
<path d="M69.65 170.6C69.65 171.16 69.484 171.707 69.1731 172.172C68.8621 172.638 68.4201 173 67.903 173.215C67.3859 173.429 66.8168 173.485 66.2679 173.376C65.7189 173.266 65.2147 172.997 64.8189 172.601C64.4231 172.205 64.1536 171.701 64.0444 171.152C63.9352 170.603 63.9912 170.034 64.2054 169.517C64.4196 169 64.7823 168.558 65.2477 168.247C65.7131 167.936 66.2603 167.77 66.82 167.77C67.5706 167.77 68.2904 168.068 68.8211 168.599C69.3518 169.13 69.65 169.849 69.65 170.6Z" fill="url(#paint1_linear_1_103)"/>
<path d="M88.8801 145.94C90.443 145.94 91.71 144.673 91.71 143.11C91.71 141.547 90.443 140.28 88.8801 140.28C87.3171 140.28 86.05 141.547 86.05 143.11C86.05 144.673 87.3171 145.94 88.8801 145.94Z" fill="url(#paint2_linear_1_103)"/>
<path d="M113.4 170.6C113.402 171.163 113.237 171.713 112.925 172.182C112.614 172.65 112.171 173.016 111.651 173.232C111.132 173.448 110.56 173.505 110.008 173.396C109.457 173.287 108.95 173.016 108.552 172.618C108.154 172.22 107.883 171.713 107.774 171.162C107.665 170.61 107.722 170.038 107.938 169.519C108.154 168.999 108.52 168.556 108.988 168.244C109.457 167.933 110.007 167.768 110.57 167.77C111.32 167.773 112.038 168.072 112.568 168.602C113.098 169.132 113.397 169.85 113.4 170.6Z" fill="url(#paint3_linear_1_103)"/>
<path d="M135.99 129.08C135.99 129.64 135.824 130.187 135.513 130.652C135.202 131.118 134.76 131.48 134.243 131.695C133.726 131.909 133.157 131.965 132.608 131.856C132.059 131.746 131.555 131.477 131.159 131.081C130.763 130.685 130.494 130.181 130.384 129.632C130.275 129.083 130.331 128.514 130.545 127.997C130.76 127.48 131.122 127.038 131.588 126.727C132.053 126.416 132.6 126.25 133.16 126.25C133.532 126.249 133.901 126.321 134.245 126.463C134.588 126.605 134.901 126.813 135.164 127.076C135.427 127.339 135.635 127.652 135.777 127.995C135.919 128.339 135.991 128.708 135.99 129.08Z" fill="url(#paint4_linear_1_103)"/>
<path d="M176.96 117.36C178.523 117.36 179.79 116.093 179.79 114.53C179.79 112.967 178.523 111.7 176.96 111.7C175.397 111.7 174.13 112.967 174.13 114.53C174.13 116.093 175.397 117.36 176.96 117.36Z" fill="url(#paint5_linear_1_103)"/>
<path d="M223.96 114.53C223.962 115.094 223.796 115.645 223.483 116.115C223.171 116.584 222.725 116.949 222.204 117.165C221.683 117.38 221.11 117.435 220.557 117.323C220.005 117.212 219.498 116.938 219.101 116.537C218.705 116.136 218.436 115.627 218.331 115.073C218.225 114.519 218.286 113.946 218.507 113.427C218.728 112.909 219.098 112.467 219.57 112.16C220.043 111.852 220.596 111.692 221.16 111.7C221.905 111.71 222.615 112.013 223.139 112.542C223.663 113.072 223.957 113.785 223.96 114.53Z" fill="url(#paint6_linear_1_103)"/>
</g>
<g clip-path="url(#clip1_1_103)">
<path d="M296.49 137.36L251.49 122.73C254.474 113.161 260.464 104.809 268.57 98.9132C276.676 93.0173 286.467 89.8917 296.49 90V137.36Z" fill="#171E27" fill-opacity="0.6"/>
<path d="M296.49 137.36L324.33 175.67C314.168 183.052 301.49 186.095 289.085 184.129C276.679 182.164 265.563 175.351 258.18 165.19C253.68 159.198 250.715 152.196 249.543 144.795C248.372 137.394 249.03 129.818 251.46 122.73L296.49 137.36Z" fill="#171E27" fill-opacity="0.8"/>
<path d="M296.49 137.36L324.33 99.05C329.361 102.705 333.623 107.314 336.873 112.617C340.122 117.919 342.295 123.809 343.267 129.951C344.24 136.093 343.992 142.366 342.539 148.413C341.087 154.459 338.457 160.16 334.8 165.19C331.912 169.237 328.374 172.778 324.33 175.67L296.49 137.36Z" fill="#A9C2CB" fill-opacity="0.6"/>
<path d="M296.49 137.36V90C306.509 89.8456 316.297 93.01 324.33 99L296.49 137.36Z" fill="#171E27" fill-opacity="0.2"/>
</g>
<g filter="url(#filter1_d_1_103)">
<path fill-rule="evenodd" clip-rule="evenodd" d="M68.9872 37.1974C72.9158 37.9895 76.0104 41.0842 76.8025 45.0128C77.0209 46.0955 76.1046 47 75 47H69C67.8954 47 67 46.1046 67 45V39C67 37.8954 67.9045 36.9791 68.9872 37.1974ZM57 48C57 43.1972 60.762 39.2731 65.5 39.0137V45C65.5 46.933 67.067 48.5 69 48.5H74.9863C74.7269 53.238 70.8028 57 66 57C61.0294 57 57 52.9706 57 48Z" fill="white"/>
</g>
<defs>
<filter id="filter0_d_1_103" x="0" y="0" width="391" height="253" filterUnits="userSpaceOnUse" color-interpolation-filters="sRGB">
<feFlood flood-opacity="0" result="BackgroundImageFix"/>
<feColorMatrix in="SourceAlpha" type="matrix" values="0 0 0 0 0 0 0 0 0 0 0 0 0 0 0 0 0 0 127 0" result="hardAlpha"/>
<feMorphology radius="12" operator="erode" in="SourceAlpha" result="effect1_dropShadow_1_103"/>
<feOffset dy="20"/>
<feGaussianBlur stdDeviation="19.5"/>
<feComposite in2="hardAlpha" operator="out"/>
<feColorMatrix type="matrix" values="0 0 0 0 0.388235 0 0 0 0 0.458824 0 0 0 0 0.486275 0 0 0 0.4 0"/>
<feBlend mode="normal" in2="BackgroundImageFix" result="effect1_dropShadow_1_103"/>
<feBlend mode="normal" in="SourceGraphic" in2="effect1_dropShadow_1_103" result="shape"/>
</filter>
<filter id="filter1_d_1_103" x="50" y="34.165" width="33.835" height="33.835" filterUnits="userSpaceOnUse" color-interpolation-filters="sRGB">
<feFlood flood-opacity="0" result="BackgroundImageFix"/>
<feColorMatrix in="SourceAlpha" type="matrix" values="0 0 0 0 0 0 0 0 0 0 0 0 0 0 0 0 0 0 127 0" result="hardAlpha"/>
<feOffset dy="4"/>
<feGaussianBlur stdDeviation="3.5"/>
<feComposite in2="hardAlpha" operator="out"/>
<feColorMatrix type="matrix" values="0 0 0 0 0.388451 0 0 0 0 0.459239 0 0 0 0 0.484722 0 0 0 0.8 0"/>
<feBlend mode="normal" in2="BackgroundImageFix" result="effect1_dropShadow_1_103"/>
<feBlend mode="normal" in="SourceGraphic" in2="effect1_dropShadow_1_103" result="shape"/>
</filter>
<linearGradient id="paint0_linear_1_103" x1="66.4299" y1="142.77" x2="221.12" y2="142.77" gradientUnits="userSpaceOnUse">
<stop stop-color="#171E27"/>
<stop offset="1" stop-color="#A9C2CB"/>
</linearGradient>
<linearGradient id="paint1_linear_1_103" x1="63.99" y1="170.61" x2="69.65" y2="170.61" gradientUnits="userSpaceOnUse">
<stop stop-color="#171E27"/>
<stop offset="1" stop-color="#A9C2CB"/>
</linearGradient>
<linearGradient id="paint2_linear_1_103" x1="86.05" y1="143.11" x2="91.71" y2="143.11" gradientUnits="userSpaceOnUse">
<stop stop-color="#171E27"/>
<stop offset="1" stop-color="#A9C2CB"/>
</linearGradient>
<linearGradient id="paint3_linear_1_103" x1="107.73" y1="170.61" x2="113.4" y2="170.61" gradientUnits="userSpaceOnUse">
<stop stop-color="#A9C2CB"/>
<stop offset="0.0001" stop-color="#171E27"/>
<stop offset="1" stop-color="#A9C2CB"/>
</linearGradient>
<linearGradient id="paint4_linear_1_103" x1="130.33" y1="129.08" x2="135.99" y2="129.08" gradientUnits="userSpaceOnUse">
<stop stop-color="#171E27"/>
<stop offset="1" stop-color="#A9C2CB"/>
</linearGradient>
<linearGradient id="paint5_linear_1_103" x1="174.12" y1="114.53" x2="179.79" y2="114.53" gradientUnits="userSpaceOnUse">
<stop stop-color="#171E27"/>
<stop offset="1" stop-color="#A9C2CB"/>
</linearGradient>
<linearGradient id="paint6_linear_1_103" x1="218.29" y1="114.53" x2="223.96" y2="114.53" gradientUnits="userSpaceOnUse">
<stop stop-color="#171E27"/>
<stop offset="1" stop-color="#A9C2CB"/>
</linearGradient>
<clipPath id="clip0_1_103">
<rect width="190.83" height="98.47" fill="white" transform="translate(47 87)"/>
</clipPath>
<clipPath id="clip1_1_103">
<rect width="94.86" height="94.71" fill="white" transform="translate(249 90)"/>
</clipPath>
</defs>
</svg>
