<svg width="462" height="171" viewBox="0 0 462 171" fill="none" xmlns="http://www.w3.org/2000/svg">
<g filter="url(#filter0_d_2_33)">
<rect x="27" y="7" width="408" height="117" rx="24" fill="#020305"/>
</g>
<path d="M108.84 100.24C108.013 100.24 107.227 100.087 106.48 99.78C105.733 99.46 105.1 99.0133 104.58 98.44C104.06 97.8667 103.713 97.1933 103.54 96.42L106.28 95.5C106.507 96.14 106.84 96.6267 107.28 96.96C107.72 97.28 108.24 97.44 108.84 97.44C109.333 97.44 109.753 97.3467 110.1 97.16C110.46 96.9733 110.74 96.7133 110.94 96.38C111.14 96.0333 111.24 95.6333 111.24 95.18C111.24 94.7267 111.14 94.34 110.94 94.02C110.753 93.6867 110.48 93.4333 110.12 93.26C109.773 93.0733 109.347 92.98 108.84 92.98C108.547 92.98 108.253 93.0133 107.96 93.08C107.667 93.1467 107.4 93.24 107.16 93.36L106.44 91.86L110.26 87.7H104.44V85.1H113.74V87.5L109.82 91.96L109.92 90.7C110.813 90.7 111.587 90.8867 112.24 91.26C112.907 91.62 113.42 92.1267 113.78 92.78C114.153 93.4333 114.34 94.1933 114.34 95.06C114.34 96.0467 114.1 96.9333 113.62 97.72C113.14 98.5067 112.487 99.1267 111.66 99.58C110.833 100.02 109.893 100.24 108.84 100.24ZM131.146 100.24C130.359 100.24 129.599 100.093 128.866 99.8C128.133 99.4933 127.506 99.0667 126.986 98.52C126.466 97.96 126.126 97.2933 125.966 96.52L128.706 95.6C128.906 96.24 129.226 96.7067 129.666 97C130.106 97.2933 130.599 97.44 131.146 97.44C131.613 97.44 132.019 97.3467 132.366 97.16C132.713 96.96 132.979 96.6867 133.166 96.34C133.366 95.98 133.466 95.5667 133.466 95.1C133.466 94.6333 133.366 94.2267 133.166 93.88C132.979 93.5333 132.713 93.2667 132.366 93.08C132.019 92.88 131.613 92.78 131.146 92.78C130.666 92.78 130.239 92.8867 129.866 93.1C129.493 93.3 129.219 93.6133 129.046 94.04L126.506 93.44L127.706 85.1H136.026V87.7H128.966L130.126 86.3L129.306 92.5L128.466 91.76C128.799 91.2133 129.219 90.8133 129.726 90.56C130.246 90.3067 130.913 90.18 131.726 90.18C132.726 90.18 133.586 90.3933 134.306 90.82C135.026 91.2333 135.579 91.8067 135.966 92.54C136.366 93.2733 136.566 94.1267 136.566 95.1C136.566 96.0733 136.326 96.9533 135.846 97.74C135.379 98.5133 134.739 99.1267 133.926 99.58C133.113 100.02 132.186 100.24 131.146 100.24ZM148.371 100V97.6L152.371 93.48C153.158 92.6667 153.751 92.0267 154.151 91.56C154.565 91.08 154.845 90.68 154.991 90.36C155.151 90.04 155.231 89.7267 155.231 89.42C155.231 88.8733 155.051 88.4467 154.691 88.14C154.345 87.82 153.905 87.66 153.371 87.66C152.825 87.66 152.338 87.82 151.911 88.14C151.485 88.4467 151.171 88.92 150.971 89.56L148.271 88.68C148.431 87.9067 148.765 87.2333 149.271 86.66C149.778 86.0867 150.391 85.6467 151.111 85.34C151.831 85.02 152.585 84.86 153.371 84.86C154.358 84.86 155.225 85.0333 155.971 85.38C156.718 85.7267 157.298 86.2133 157.711 86.84C158.125 87.4667 158.331 88.2 158.331 89.04C158.331 89.5733 158.238 90.1 158.051 90.62C157.865 91.1267 157.578 91.6467 157.191 92.18C156.818 92.7 156.331 93.2667 155.731 93.88L152.311 97.4H158.471V100H148.371ZM170.765 100V85.1H175.625C177.239 85.1 178.639 85.42 179.825 86.06C181.012 86.7 181.932 87.58 182.585 88.7C183.239 89.82 183.565 91.1 183.565 92.54C183.565 93.98 183.239 95.2667 182.585 96.4C181.932 97.52 181.012 98.4 179.825 99.04C178.639 99.68 177.239 100 175.625 100H170.765ZM173.865 97.3H175.705C176.679 97.3 177.519 97.1067 178.225 96.72C178.932 96.32 179.479 95.7667 179.865 95.06C180.265 94.34 180.465 93.5 180.465 92.54C180.465 91.5667 180.265 90.7267 179.865 90.02C179.479 89.3133 178.932 88.7667 178.225 88.38C177.519 87.9933 176.679 87.8 175.705 87.8H173.865V97.3ZM213.724 100.24C212.938 100.24 212.178 100.093 211.444 99.8C210.711 99.4933 210.084 99.0667 209.564 98.52C209.044 97.96 208.704 97.2933 208.544 96.52L211.284 95.6C211.484 96.24 211.804 96.7067 212.244 97C212.684 97.2933 213.178 97.44 213.724 97.44C214.191 97.44 214.598 97.3467 214.944 97.16C215.291 96.96 215.558 96.6867 215.744 96.34C215.944 95.98 216.044 95.5667 216.044 95.1C216.044 94.6333 215.944 94.2267 215.744 93.88C215.558 93.5333 215.291 93.2667 214.944 93.08C214.598 92.88 214.191 92.78 213.724 92.78C213.244 92.78 212.818 92.8867 212.444 93.1C212.071 93.3 211.798 93.6133 211.624 94.04L209.084 93.44L210.284 85.1H218.604V87.7H211.544L212.704 86.3L211.884 92.5L211.044 91.76C211.378 91.2133 211.798 90.8133 212.304 90.56C212.824 90.3067 213.491 90.18 214.304 90.18C215.304 90.18 216.164 90.3933 216.884 90.82C217.604 91.2333 218.158 91.8067 218.544 92.54C218.944 93.2733 219.144 94.1267 219.144 95.1C219.144 96.0733 218.904 96.9533 218.424 97.74C217.958 98.5133 217.318 99.1267 216.504 99.58C215.691 100.02 214.764 100.24 213.724 100.24ZM231.429 100V85.1H234.529V91.54H240.329V85.1H243.429V100H240.329V94.24H234.529V100H231.429ZM275.592 100V96.8H268.992V94.2L275.392 85.1H278.692V94.2H280.992V96.8H278.692V100H275.592ZM271.252 95.32L270.672 94.2H275.592V87.5L276.372 87.74L271.252 95.32ZM293.134 100L298.154 93.58L298.654 94.28C298.467 94.36 298.287 94.4333 298.114 94.5C297.954 94.5533 297.787 94.5933 297.614 94.62C297.44 94.6467 297.26 94.66 297.074 94.66C296.154 94.66 295.334 94.4533 294.614 94.04C293.907 93.6267 293.347 93.0667 292.934 92.36C292.534 91.64 292.334 90.8333 292.334 89.94C292.334 88.9533 292.56 88.08 293.014 87.32C293.467 86.56 294.094 85.96 294.894 85.52C295.694 85.08 296.607 84.86 297.634 84.86C298.674 84.86 299.587 85.08 300.374 85.52C301.174 85.9467 301.8 86.5333 302.254 87.28C302.707 88.0133 302.934 88.8533 302.934 89.8C302.934 90.2667 302.887 90.7333 302.794 91.2C302.7 91.6667 302.514 92.18 302.234 92.74C301.954 93.2867 301.534 93.9267 300.974 94.66L296.834 100H293.134ZM297.634 92.12C298.047 92.12 298.414 92.0267 298.734 91.84C299.067 91.6533 299.334 91.3933 299.534 91.06C299.734 90.7267 299.834 90.34 299.834 89.9C299.834 89.4467 299.734 89.0533 299.534 88.72C299.334 88.3867 299.067 88.1267 298.734 87.94C298.414 87.7533 298.047 87.66 297.634 87.66C297.234 87.66 296.867 87.7533 296.534 87.94C296.2 88.1267 295.934 88.3867 295.734 88.72C295.534 89.0533 295.434 89.4467 295.434 89.9C295.434 90.34 295.534 90.7267 295.734 91.06C295.934 91.3933 296.2 91.6533 296.534 91.84C296.867 92.0267 297.234 92.12 297.634 92.12ZM314.984 100V85.1H317.984L323.564 92.5H322.164L327.584 85.1H330.584V100H327.484V88.52L328.724 88.8L322.984 96.2H322.584L317.044 88.8L318.084 88.52V100H314.984ZM356.34 100V97.6L360.34 93.48C361.127 92.6667 361.72 92.0267 362.12 91.56C362.533 91.08 362.813 90.68 362.96 90.36C363.12 90.04 363.2 89.7267 363.2 89.42C363.2 88.8733 363.02 88.4467 362.66 88.14C362.313 87.82 361.873 87.66 361.34 87.66C360.793 87.66 360.307 87.82 359.88 88.14C359.453 88.4467 359.14 88.92 358.94 89.56L356.24 88.68C356.4 87.9067 356.733 87.2333 357.24 86.66C357.747 86.0867 358.36 85.6467 359.08 85.34C359.8 85.02 360.553 84.86 361.34 84.86C362.327 84.86 363.193 85.0333 363.94 85.38C364.687 85.7267 365.267 86.2133 365.68 86.84C366.093 87.4667 366.3 88.2 366.3 89.04C366.3 89.5733 366.207 90.1 366.02 90.62C365.833 91.1267 365.547 91.6467 365.16 92.18C364.787 92.7 364.3 93.2667 363.7 93.88L360.28 97.4H366.44V100H356.34ZM384.414 100.24C383.227 100.24 382.181 99.92 381.274 99.28C380.381 98.64 379.681 97.74 379.174 96.58C378.667 95.42 378.414 94.0733 378.414 92.54C378.414 90.9933 378.661 89.6467 379.154 88.5C379.661 87.3533 380.361 86.46 381.254 85.82C382.161 85.18 383.207 84.86 384.394 84.86C385.607 84.86 386.661 85.18 387.554 85.82C388.461 86.46 389.161 87.36 389.654 88.52C390.161 89.6667 390.414 91.0067 390.414 92.54C390.414 94.0733 390.161 95.42 389.654 96.58C389.161 97.7267 388.461 98.6267 387.554 99.28C386.661 99.92 385.614 100.24 384.414 100.24ZM384.434 97.44C385.047 97.44 385.567 97.2467 385.994 96.86C386.421 96.4733 386.747 95.9133 386.974 95.18C387.201 94.4467 387.314 93.5667 387.314 92.54C387.314 91.5133 387.201 90.64 386.974 89.92C386.747 89.1867 386.414 88.6267 385.974 88.24C385.547 87.8533 385.021 87.66 384.394 87.66C383.781 87.66 383.261 87.8533 382.834 88.24C382.407 88.6267 382.081 89.1867 381.854 89.92C381.627 90.64 381.514 91.5133 381.514 92.54C381.514 93.5533 381.627 94.4267 381.854 95.16C382.081 95.8933 382.407 96.46 382.834 96.86C383.274 97.2467 383.807 97.44 384.434 97.44ZM408.158 100.24C407.225 100.24 406.345 100.073 405.518 99.74C404.705 99.3933 403.998 98.9067 403.398 98.28C402.811 97.6533 402.371 96.9133 402.078 96.06L404.618 94.92C404.991 95.7333 405.505 96.3733 406.158 96.84C406.825 97.3067 407.558 97.54 408.358 97.54C408.785 97.54 409.151 97.4733 409.458 97.34C409.765 97.2067 410.005 97.0267 410.178 96.8C410.351 96.56 410.438 96.28 410.438 95.96C410.438 95.6133 410.331 95.32 410.118 95.08C409.905 94.8267 409.571 94.6267 409.118 94.48L406.198 93.52C405.011 93.1333 404.118 92.5867 403.518 91.88C402.918 91.16 402.618 90.3 402.618 89.3C402.618 88.42 402.831 87.6467 403.258 86.98C403.698 86.3133 404.305 85.7933 405.078 85.42C405.865 85.0467 406.765 84.86 407.778 84.86C408.671 84.86 409.498 85.0133 410.258 85.32C411.018 85.6267 411.671 86.06 412.218 86.62C412.778 87.18 413.198 87.8533 413.478 88.64L410.958 89.78C410.678 89.0867 410.258 88.5467 409.698 88.16C409.138 87.76 408.498 87.56 407.778 87.56C407.365 87.56 406.998 87.6267 406.678 87.76C406.358 87.8933 406.111 88.0867 405.938 88.34C405.765 88.58 405.678 88.86 405.678 89.18C405.678 89.5267 405.791 89.8333 406.018 90.1C406.245 90.3533 406.585 90.5533 407.038 90.7L409.898 91.62C411.098 92.0067 411.991 92.5467 412.578 93.24C413.178 93.9333 413.478 94.78 413.478 95.78C413.478 96.6467 413.251 97.42 412.798 98.1C412.345 98.7667 411.718 99.2933 410.918 99.68C410.131 100.053 409.211 100.24 408.158 100.24Z" fill="white"/>
<path d="M106.762 54V42.48H103.198V40.59H112.378V42.48H108.868V54H106.762ZM117.2 54.216C116.264 54.216 115.406 53.994 114.626 53.55C113.858 53.106 113.246 52.5 112.79 51.732C112.334 50.964 112.106 50.094 112.106 49.122C112.106 48.138 112.334 47.268 112.79 46.512C113.246 45.744 113.858 45.144 114.626 44.712C115.394 44.268 116.252 44.046 117.2 44.046C118.16 44.046 119.018 44.268 119.774 44.712C120.542 45.144 121.148 45.744 121.592 46.512C122.048 47.268 122.276 48.138 122.276 49.122C122.276 50.106 122.048 50.982 121.592 51.75C121.136 52.518 120.524 53.124 119.756 53.568C118.988 54 118.136 54.216 117.2 54.216ZM117.2 52.326C117.776 52.326 118.286 52.188 118.73 51.912C119.174 51.636 119.522 51.258 119.774 50.778C120.038 50.286 120.17 49.734 120.17 49.122C120.17 48.51 120.038 47.964 119.774 47.484C119.522 47.004 119.174 46.626 118.73 46.35C118.286 46.074 117.776 45.936 117.2 45.936C116.636 45.936 116.126 46.074 115.67 46.35C115.226 46.626 114.872 47.004 114.608 47.484C114.356 47.964 114.23 48.51 114.23 49.122C114.23 49.734 114.356 50.286 114.608 50.778C114.872 51.258 115.226 51.636 115.67 51.912C116.126 52.188 116.636 52.326 117.2 52.326ZM128.298 54.108C127.278 54.108 126.486 53.82 125.922 53.244C125.358 52.668 125.076 51.858 125.076 50.814V46.098H123.366V44.262H123.636C124.092 44.262 124.446 44.13 124.698 43.866C124.95 43.602 125.076 43.242 125.076 42.786V42.03H127.11V44.262H129.324V46.098H127.11V50.724C127.11 51.06 127.164 51.348 127.272 51.588C127.38 51.816 127.554 51.996 127.794 52.128C128.034 52.248 128.346 52.308 128.73 52.308C128.826 52.308 128.934 52.302 129.054 52.29C129.174 52.278 129.288 52.266 129.396 52.254V54C129.228 54.024 129.042 54.048 128.838 54.072C128.634 54.096 128.454 54.108 128.298 54.108ZM134.209 54.216C133.549 54.216 132.967 54.102 132.463 53.874C131.971 53.634 131.587 53.31 131.311 52.902C131.035 52.482 130.897 51.99 130.897 51.426C130.897 50.898 131.011 50.424 131.239 50.004C131.479 49.584 131.845 49.23 132.337 48.942C132.829 48.654 133.447 48.45 134.191 48.33L137.575 47.772V49.374L134.587 49.896C134.047 49.992 133.651 50.166 133.399 50.418C133.147 50.658 133.021 50.97 133.021 51.354C133.021 51.726 133.159 52.032 133.435 52.272C133.723 52.5 134.089 52.614 134.533 52.614C135.085 52.614 135.565 52.494 135.973 52.254C136.393 52.014 136.717 51.696 136.945 51.3C137.173 50.892 137.287 50.442 137.287 49.95V47.448C137.287 46.968 137.107 46.578 136.747 46.278C136.399 45.966 135.931 45.81 135.343 45.81C134.803 45.81 134.329 45.954 133.921 46.242C133.525 46.518 133.231 46.878 133.039 47.322L131.347 46.476C131.527 45.996 131.821 45.576 132.229 45.216C132.637 44.844 133.111 44.556 133.651 44.352C134.203 44.148 134.785 44.046 135.397 44.046C136.165 44.046 136.843 44.19 137.431 44.478C138.031 44.766 138.493 45.168 138.817 45.684C139.153 46.188 139.321 46.776 139.321 47.448V54H137.377V52.236L137.791 52.29C137.563 52.686 137.269 53.028 136.909 53.316C136.561 53.604 136.159 53.826 135.703 53.982C135.259 54.138 134.761 54.216 134.209 54.216ZM141.7 54V40.374H143.734V54H141.7ZM153.47 54.108C152.45 54.108 151.658 53.82 151.094 53.244C150.53 52.668 150.248 51.858 150.248 50.814V46.098H148.538V44.262H148.808C149.264 44.262 149.618 44.13 149.87 43.866C150.122 43.602 150.248 43.242 150.248 42.786V42.03H152.282V44.262H154.496V46.098H152.282V50.724C152.282 51.06 152.336 51.348 152.444 51.588C152.552 51.816 152.726 51.996 152.966 52.128C153.206 52.248 153.518 52.308 153.902 52.308C153.998 52.308 154.106 52.302 154.226 52.29C154.346 52.278 154.46 52.266 154.568 52.254V54C154.4 54.024 154.214 54.048 154.01 54.072C153.806 54.096 153.626 54.108 153.47 54.108ZM156.553 54V44.262H158.587V54H156.553ZM156.553 42.93V40.59H158.587V42.93H156.553ZM160.965 54V44.262H162.909V46.368L162.657 46.044C162.861 45.384 163.233 44.886 163.773 44.55C164.313 44.214 164.931 44.046 165.627 44.046C166.407 44.046 167.097 44.256 167.697 44.676C168.309 45.084 168.717 45.63 168.921 46.314L168.345 46.368C168.633 45.588 169.071 45.006 169.659 44.622C170.259 44.238 170.943 44.046 171.711 44.046C172.383 44.046 172.989 44.202 173.529 44.514C174.081 44.826 174.519 45.258 174.843 45.81C175.167 46.362 175.329 46.992 175.329 47.7V54H173.295V48.258C173.295 47.766 173.205 47.352 173.025 47.016C172.857 46.668 172.617 46.404 172.305 46.224C172.005 46.032 171.651 45.936 171.243 45.936C170.835 45.936 170.475 46.032 170.163 46.224C169.851 46.404 169.605 46.668 169.425 47.016C169.245 47.364 169.155 47.778 169.155 48.258V54H167.139V48.258C167.139 47.766 167.049 47.352 166.869 47.016C166.701 46.668 166.461 46.404 166.149 46.224C165.849 46.032 165.489 45.936 165.069 45.936C164.661 45.936 164.301 46.032 163.989 46.224C163.677 46.404 163.431 46.668 163.251 47.016C163.083 47.364 162.999 47.778 162.999 48.258V54H160.965ZM182.078 54.216C181.106 54.216 180.242 53.994 179.486 53.55C178.742 53.094 178.16 52.482 177.74 51.714C177.32 50.934 177.11 50.064 177.11 49.104C177.11 48.12 177.32 47.25 177.74 46.494C178.172 45.738 178.748 45.144 179.468 44.712C180.188 44.268 181.004 44.046 181.916 44.046C182.648 44.046 183.302 44.172 183.878 44.424C184.454 44.676 184.94 45.024 185.336 45.468C185.732 45.9 186.032 46.398 186.236 46.962C186.452 47.526 186.56 48.126 186.56 48.762C186.56 48.918 186.554 49.08 186.542 49.248C186.53 49.416 186.506 49.572 186.47 49.716H178.712V48.096H185.318L184.346 48.834C184.466 48.246 184.424 47.724 184.22 47.268C184.028 46.8 183.728 46.434 183.32 46.17C182.924 45.894 182.456 45.756 181.916 45.756C181.376 45.756 180.896 45.894 180.476 46.17C180.056 46.434 179.732 46.818 179.504 47.322C179.276 47.814 179.186 48.414 179.234 49.122C179.174 49.782 179.264 50.358 179.504 50.85C179.756 51.342 180.104 51.726 180.548 52.002C181.004 52.278 181.52 52.416 182.096 52.416C182.684 52.416 183.182 52.284 183.59 52.02C184.01 51.756 184.34 51.414 184.58 50.994L186.236 51.804C186.044 52.26 185.744 52.674 185.336 53.046C184.94 53.406 184.46 53.694 183.896 53.91C183.344 54.114 182.738 54.216 182.078 54.216ZM191.692 54V44.262H193.726V54H191.692ZM191.692 42.93V40.59H193.726V42.93H191.692ZM196.104 54V44.262H198.048V46.17L197.814 45.918C198.054 45.306 198.438 44.844 198.966 44.532C199.494 44.208 200.106 44.046 200.802 44.046C201.522 44.046 202.158 44.202 202.71 44.514C203.262 44.826 203.694 45.258 204.006 45.81C204.318 46.362 204.474 46.998 204.474 47.718V54H202.458V48.258C202.458 47.766 202.368 47.352 202.188 47.016C202.008 46.668 201.75 46.404 201.414 46.224C201.09 46.032 200.718 45.936 200.298 45.936C199.878 45.936 199.5 46.032 199.164 46.224C198.84 46.404 198.588 46.668 198.408 47.016C198.228 47.364 198.138 47.778 198.138 48.258V54H196.104ZM213.397 54.216C212.401 54.216 211.525 53.97 210.769 53.478C210.025 52.986 209.503 52.326 209.203 51.498L210.769 50.76C211.033 51.312 211.393 51.75 211.849 52.074C212.317 52.398 212.833 52.56 213.397 52.56C213.877 52.56 214.267 52.452 214.567 52.236C214.867 52.02 215.017 51.726 215.017 51.354C215.017 51.114 214.951 50.922 214.819 50.778C214.687 50.622 214.519 50.496 214.315 50.4C214.123 50.304 213.925 50.232 213.721 50.184L212.191 49.752C211.351 49.512 210.721 49.152 210.301 48.672C209.893 48.18 209.689 47.61 209.689 46.962C209.689 46.374 209.839 45.864 210.139 45.432C210.439 44.988 210.853 44.646 211.381 44.406C211.909 44.166 212.503 44.046 213.163 44.046C214.051 44.046 214.843 44.268 215.539 44.712C216.235 45.144 216.727 45.75 217.015 46.53L215.449 47.268C215.257 46.8 214.951 46.428 214.531 46.152C214.123 45.876 213.661 45.738 213.145 45.738C212.701 45.738 212.347 45.846 212.083 46.062C211.819 46.266 211.687 46.536 211.687 46.872C211.687 47.1 211.747 47.292 211.867 47.448C211.987 47.592 212.143 47.712 212.335 47.808C212.527 47.892 212.725 47.964 212.929 48.024L214.513 48.492C215.317 48.72 215.935 49.08 216.367 49.572C216.799 50.052 217.015 50.628 217.015 51.3C217.015 51.876 216.859 52.386 216.547 52.83C216.247 53.262 215.827 53.604 215.287 53.856C214.747 54.096 214.117 54.216 213.397 54.216ZM219.008 57.6V44.262H220.952V46.278L220.718 45.81C221.078 45.258 221.558 44.826 222.158 44.514C222.758 44.202 223.442 44.046 224.21 44.046C225.134 44.046 225.962 44.268 226.694 44.712C227.438 45.156 228.02 45.762 228.44 46.53C228.872 47.298 229.088 48.162 229.088 49.122C229.088 50.082 228.872 50.946 228.44 51.714C228.02 52.482 227.444 53.094 226.712 53.55C225.98 53.994 225.146 54.216 224.21 54.216C223.454 54.216 222.764 54.06 222.14 53.748C221.528 53.436 221.054 52.986 220.718 52.398L221.042 52.02V57.6H219.008ZM224.012 52.326C224.588 52.326 225.098 52.188 225.542 51.912C225.986 51.636 226.334 51.258 226.586 50.778C226.85 50.286 226.982 49.734 226.982 49.122C226.982 48.51 226.85 47.964 226.586 47.484C226.334 47.004 225.986 46.626 225.542 46.35C225.098 46.074 224.588 45.936 224.012 45.936C223.448 45.936 222.938 46.074 222.482 46.35C222.038 46.626 221.684 47.004 221.42 47.484C221.168 47.964 221.042 48.51 221.042 49.122C221.042 49.734 221.168 50.286 221.42 50.778C221.684 51.258 222.038 51.636 222.482 51.912C222.938 52.188 223.448 52.326 224.012 52.326ZM233.983 54.216C233.323 54.216 232.741 54.102 232.237 53.874C231.745 53.634 231.361 53.31 231.085 52.902C230.809 52.482 230.671 51.99 230.671 51.426C230.671 50.898 230.785 50.424 231.013 50.004C231.253 49.584 231.619 49.23 232.111 48.942C232.603 48.654 233.221 48.45 233.965 48.33L237.349 47.772V49.374L234.361 49.896C233.821 49.992 233.425 50.166 233.173 50.418C232.921 50.658 232.795 50.97 232.795 51.354C232.795 51.726 232.933 52.032 233.209 52.272C233.497 52.5 233.863 52.614 234.307 52.614C234.859 52.614 235.339 52.494 235.747 52.254C236.167 52.014 236.491 51.696 236.719 51.3C236.947 50.892 237.061 50.442 237.061 49.95V47.448C237.061 46.968 236.881 46.578 236.521 46.278C236.173 45.966 235.705 45.81 235.117 45.81C234.577 45.81 234.103 45.954 233.695 46.242C233.299 46.518 233.005 46.878 232.813 47.322L231.121 46.476C231.301 45.996 231.595 45.576 232.003 45.216C232.411 44.844 232.885 44.556 233.425 44.352C233.977 44.148 234.559 44.046 235.171 44.046C235.939 44.046 236.617 44.19 237.205 44.478C237.805 44.766 238.267 45.168 238.591 45.684C238.927 46.188 239.095 46.776 239.095 47.448V54H237.151V52.236L237.565 52.29C237.337 52.686 237.043 53.028 236.683 53.316C236.335 53.604 235.933 53.826 235.477 53.982C235.033 54.138 234.535 54.216 233.983 54.216ZM246.099 54.216C245.127 54.216 244.263 53.994 243.507 53.55C242.763 53.094 242.169 52.482 241.725 51.714C241.293 50.946 241.077 50.076 241.077 49.104C241.077 48.144 241.293 47.28 241.725 46.512C242.157 45.744 242.751 45.144 243.507 44.712C244.263 44.268 245.127 44.046 246.099 44.046C246.759 44.046 247.377 44.166 247.953 44.406C248.529 44.634 249.027 44.952 249.447 45.36C249.879 45.768 250.197 46.242 250.401 46.782L248.619 47.61C248.415 47.106 248.085 46.704 247.629 46.404C247.185 46.092 246.675 45.936 246.099 45.936C245.547 45.936 245.049 46.074 244.605 46.35C244.173 46.614 243.831 46.992 243.579 47.484C243.327 47.964 243.201 48.51 243.201 49.122C243.201 49.734 243.327 50.286 243.579 50.778C243.831 51.258 244.173 51.636 244.605 51.912C245.049 52.188 245.547 52.326 246.099 52.326C246.687 52.326 247.197 52.176 247.629 51.876C248.073 51.564 248.403 51.15 248.619 50.634L250.401 51.48C250.209 51.996 249.897 52.464 249.465 52.884C249.045 53.292 248.547 53.616 247.971 53.856C247.395 54.096 246.771 54.216 246.099 54.216ZM256.961 54.216C255.989 54.216 255.125 53.994 254.369 53.55C253.625 53.094 253.043 52.482 252.623 51.714C252.203 50.934 251.993 50.064 251.993 49.104C251.993 48.12 252.203 47.25 252.623 46.494C253.055 45.738 253.631 45.144 254.351 44.712C255.071 44.268 255.887 44.046 256.799 44.046C257.531 44.046 258.185 44.172 258.761 44.424C259.337 44.676 259.823 45.024 260.219 45.468C260.615 45.9 260.915 46.398 261.119 46.962C261.335 47.526 261.443 48.126 261.443 48.762C261.443 48.918 261.437 49.08 261.425 49.248C261.413 49.416 261.389 49.572 261.353 49.716H253.595V48.096H260.201L259.229 48.834C259.349 48.246 259.307 47.724 259.103 47.268C258.911 46.8 258.611 46.434 258.203 46.17C257.807 45.894 257.339 45.756 256.799 45.756C256.259 45.756 255.779 45.894 255.359 46.17C254.939 46.434 254.615 46.818 254.387 47.322C254.159 47.814 254.069 48.414 254.117 49.122C254.057 49.782 254.147 50.358 254.387 50.85C254.639 51.342 254.987 51.726 255.431 52.002C255.887 52.278 256.403 52.416 256.979 52.416C257.567 52.416 258.065 52.284 258.473 52.02C258.893 51.756 259.223 51.414 259.463 50.994L261.119 51.804C260.927 52.26 260.627 52.674 260.219 53.046C259.823 53.406 259.343 53.694 258.779 53.91C258.227 54.114 257.621 54.216 256.961 54.216Z" fill="white"/>
<rect x="47" y="27" width="40" height="40" rx="12" fill="#A9C2CB"/>
<g filter="url(#filter1_d_2_33)">
<path fill-rule="evenodd" clip-rule="evenodd" d="M64.2041 39.1358C65.092 38.8846 66.0297 38.75 67 38.75C67.9703 38.75 68.908 38.8846 69.7959 39.1358C70.1945 39.2485 70.609 39.0168 70.7217 38.6182C70.8344 38.2196 70.6027 37.8051 70.2041 37.6924C69.1847 37.404 68.1097 37.25 67 37.25C65.8903 37.25 64.8153 37.404 63.7959 37.6924C63.3973 37.8051 63.1656 38.2196 63.2783 38.6182C63.391 39.0168 63.8055 39.2485 64.2041 39.1358ZM75.5 48.5C75.5 53.1944 71.6944 57 67 57C62.3056 57 58.5 53.1944 58.5 48.5C58.5 43.8056 62.3056 40 67 40C71.6944 40 75.5 43.8056 75.5 48.5ZM67.75 44C67.75 43.5858 67.4142 43.25 67 43.25C66.5858 43.25 66.25 43.5858 66.25 44V47.7007C65.8016 47.96 65.5 48.4448 65.5 49C65.5 49.8284 66.1716 50.5 67 50.5C67.8284 50.5 68.5 49.8284 68.5 49C68.5 48.4448 68.1984 47.96 67.75 47.7007V44Z" fill="white"/>
</g>
<defs>
<filter id="filter0_d_2_33" x="0" y="0" width="462" height="171" filterUnits="userSpaceOnUse" color-interpolation-filters="sRGB">
<feFlood flood-opacity="0" result="BackgroundImageFix"/>
<feColorMatrix in="SourceAlpha" type="matrix" values="0 0 0 0 0 0 0 0 0 0 0 0 0 0 0 0 0 0 127 0" result="hardAlpha"/>
<feMorphology radius="12" operator="erode" in="SourceAlpha" result="effect1_dropShadow_2_33"/>
<feOffset dy="20"/>
<feGaussianBlur stdDeviation="19.5"/>
<feComposite in2="hardAlpha" operator="out"/>
<feColorMatrix type="matrix" values="0 0 0 0 0.388235 0 0 0 0 0.458824 0 0 0 0 0.486275 0 0 0 0.4 0"/>
<feBlend mode="normal" in2="BackgroundImageFix" result="effect1_dropShadow_2_33"/>
<feBlend mode="normal" in="SourceGraphic" in2="effect1_dropShadow_2_33" result="shape"/>
</filter>
<filter id="filter1_d_2_33" x="51.5" y="34.25" width="31" height="33.75" filterUnits="userSpaceOnUse" color-interpolation-filters="sRGB">
<feFlood flood-opacity="0" result="BackgroundImageFix"/>
<feColorMatrix in="SourceAlpha" type="matrix" values="0 0 0 0 0 0 0 0 0 0 0 0 0 0 0 0 0 0 127 0" result="hardAlpha"/>
<feOffset dy="4"/>
<feGaussianBlur stdDeviation="3.5"/>
<feComposite in2="hardAlpha" operator="out"/>
<feColorMatrix type="matrix" values="0 0 0 0 0.388451 0 0 0 0 0.459239 0 0 0 0 0.484722 0 0 0 0.8 0"/>
<feBlend mode="normal" in2="BackgroundImageFix" result="effect1_dropShadow_2_33"/>
<feBlend mode="normal" in="SourceGraphic" in2="effect1_dropShadow_2_33" result="shape"/>
</filter>
</defs>
</svg>
